#N canvas 953 0 958 988 12;
#X declare -lib Gem;
#X obj 62 155 gemwin;
#X msg 79 101 create;
#X msg 122 112 destroy;
#X obj 33 112 tgl 15 0 empty empty empty 17 7 0 10 -262144 -1 -1 1
1;
#X obj 105 285 gemhead 55;
#X obj 105 430 translateXYZ;
#X obj 105 487 square 0.2;
#X msg 16 432 draw line;
#X obj 16 391 loadbang;
#X obj 132 323 r x;
#X obj 181 323 r y;
#X obj 279 9 loadbang;
#X msg 279 112 horizontal;
#X obj 386 9 gemhead 50;
#X obj 386 50 pix_video;
#X msg 279 50 device 0;
#X obj 386 112 pix_rgba;
#X obj 386 153 pix_flip;
#X obj 386 194 trigger a a;
#X obj 460 245 pix_separator;
#X obj 460 327 pix_data;
#X obj 460 286 r x;
#X obj 517 285 r y;
#X obj 372 285 metro 100;
#X obj 386 235 tgl 15 0 empty empty empty 17 7 0 10 -262144 -1 -1 1
1;
#X obj 469 391 trigger a a;
#X obj 543 430 spigot;
#X obj 582 391 tgl 15 0 empty empty empty 17 7 0 10 -262144 -1 -1 0
1;
#X text 613 390 store color;
#X floatatom 469 510 5 0 0 0 - - -;
#X obj 256 285 pix_separator;
#X obj 256 326 pix_texture;
#X obj 256 391 rectangle 5.33 4;
#X obj 33 724 hsl 128 15 0 1 0 0 empty empty empty -2 -8 0 10 -262144
-1 -1 7000 1;
#X obj 30 801 s x;
#X text 174 723 X;
#X text 162 607 Y;
#X obj 24 685 s y;
#X obj 469 469 colorDistance;
#X obj 57 9 declare -lib Gem;
#X obj 27 608 hsl 128 15 0 1 0 0 empty empty empty -2 -8 0 10 -262144
-1 -1 6700 1;
#X obj 35 520 gemmouse;
#X floatatom 35 561 5 0 0 0 - - -;
#X floatatom 94 573 5 0 0 0 - - -;
#X floatatom 24 645 5 0 0 0 - - -;
#X floatatom 30 761 5 0 0 0 - - -;
#X obj 132 364 * 10;
#X obj 132 405 - 5;
#X msg 79 60 dimen 500 400;
#X obj 181 364 * 8;
#X obj 181 405 - 4;
#X obj 467 719 osc~;
#X obj 450 618 sel 1 0;
#X obj 453 561 > 0.4;
#X msg 414 677 440;
#X msg 520 673 0;
#X obj 467 785 dac~;
#X connect 1 0 0 0;
#X connect 2 0 0 0;
#X connect 3 0 0 0;
#X connect 4 0 5 0;
#X connect 5 0 6 0;
#X connect 7 0 6 0;
#X connect 8 0 7 0;
#X connect 9 0 46 0;
#X connect 10 0 49 0;
#X connect 11 0 12 0;
#X connect 11 0 15 0;
#X connect 13 0 14 0;
#X connect 14 0 16 0;
#X connect 15 0 14 0;
#X connect 16 0 17 0;
#X connect 17 0 18 0;
#X connect 18 0 30 0;
#X connect 18 1 19 0;
#X connect 19 0 20 1;
#X connect 20 1 25 0;
#X connect 21 0 20 2;
#X connect 22 0 20 3;
#X connect 23 0 20 0;
#X connect 24 0 23 0;
#X connect 25 0 38 0;
#X connect 25 1 26 0;
#X connect 26 0 38 1;
#X connect 27 0 26 1;
#X connect 29 0 53 0;
#X connect 30 0 31 0;
#X connect 31 0 32 0;
#X connect 33 0 45 0;
#X connect 38 0 29 0;
#X connect 40 0 44 0;
#X connect 41 0 42 0;
#X connect 41 1 43 0;
#X connect 44 0 37 0;
#X connect 45 0 34 0;
#X connect 46 0 47 0;
#X connect 47 0 5 1;
#X connect 48 0 0 0;
#X connect 49 0 50 0;
#X connect 50 0 5 2;
#X connect 51 0 56 0;
#X connect 52 0 54 0;
#X connect 52 1 55 0;
#X connect 53 0 52 0;
#X connect 54 0 51 0;
#X connect 55 0 51 0;
