#N canvas 1803 215 721 598 12;
#X obj 48 75 gemwin;
#X msg 48 31 create;
#X msg 108 30 destroy;
#X obj 19 32 tgl 15 0 empty empty empty 17 7 0 10 -262144 -1 -1 0 1
;
#X msg 58 6 dimen 800 600;
#X obj 284 159 noteHotspot;
#X obj 287 65 hsl 128 15 0 1 0 0 empty empty empty -2 -8 0 10 -262144
-1 -1 5800 1;
#X obj 324 90 hsl 128 15 0 1 0 0 empty empty empty -2 -8 0 10 -262144
-1 -1 9000 1;
#X text 428 64 X Slider;
#X text 465 89 Y Slider;
#X obj 358 122 tgl 15 0 empty empty empty 17 7 0 10 -262144 -1 -1 0
1;
#X text 386 121 Store Color;
#X obj 284 194 tgl 15 0 empty empty empty 17 7 0 10 -262144 -1 -1 0
1;
#X obj 314 464 osc~;
#X obj 316 551 dac~;
#X floatatom 314 417 5 0 0 0 - - -;
#X obj 315 507 *~;
#X obj 372 491 / 127;
#X obj 375 443 hsl 128 15 0 127 0 0 empty empty empty -2 -8 0 10 -262144
-1 -1 6100 1;
#X msg 324 275 440;
#X obj 284 233 sel 0 1;
#X msg 284 274 0;
#X obj 202 82 loadbang;
#X msg 218 114 device 0;
#X connect 1 0 0 0;
#X connect 2 0 0 0;
#X connect 3 0 0 0;
#X connect 4 0 0 0;
#X connect 5 0 12 0;
#X connect 6 0 5 1;
#X connect 7 0 5 2;
#X connect 10 0 5 3;
#X connect 12 0 20 0;
#X connect 13 0 16 0;
#X connect 15 0 13 0;
#X connect 16 0 14 0;
#X connect 16 0 14 1;
#X connect 17 0 16 1;
#X connect 18 0 17 0;
#X connect 19 0 15 0;
#X connect 20 0 21 0;
#X connect 20 1 19 0;
#X connect 21 0 15 0;
#X connect 22 0 23 0;
#X connect 23 0 5 0;
