#N canvas 1142 183 732 557 12;
#X obj 279 62 loadbang;
#X msg 279 100 horizontal;
#X obj 386 18 gemhead 50;
#X obj 386 63 pix_video;
#X obj 386 101 pix_rgba;
#X obj 386 152 pix_flip;
#X obj 386 203 trigger a a;
#X obj 460 250 pix_separator;
#X obj 256 283 pix_separator;
#X obj 256 328 pix_texture;
#X obj 256 374 rectangle 5.33 4;
#X obj 449 372 hotspot;
#X text 573 353 Store color;
#X obj 449 411 tgl 15 0 empty empty empty 17 7 0 10 -262144 -1 -1 0
1;
#X obj 421 284 r m;
#X obj 108 177 metro 50;
#X obj 108 206 s m;
#X obj 108 140 loadbang;
#X text 520 286 X Slider;
#X text 530 321 Y Slider;
#X obj 472 288 inlet;
#X obj 483 321 inlet;
#X obj 524 353 inlet;
#X obj 449 447 outlet;
#X obj 280 15 inlet;
#X connect 0 0 1 0;
#X connect 1 0 5 0;
#X connect 2 0 3 0;
#X connect 3 0 4 0;
#X connect 4 0 5 0;
#X connect 5 0 6 0;
#X connect 6 0 8 0;
#X connect 6 1 7 0;
#X connect 7 0 11 1;
#X connect 8 0 9 0;
#X connect 9 0 10 0;
#X connect 11 0 13 0;
#X connect 13 0 23 0;
#X connect 14 0 11 0;
#X connect 15 0 16 0;
#X connect 17 0 15 0;
#X connect 20 0 11 2;
#X connect 21 0 11 3;
#X connect 22 0 11 4;
#X connect 24 0 3 0;
