#N canvas 953 0 958 988 10;
#X obj 68 81 dac~;
#X obj 68 33 osc~ 440;
#X obj 225 81 dac~;
#X obj 308 81 dac~;
#X obj 453 81 dac~;
#X obj 601 81 dac~;
#X obj 678 81 dac~;
#X obj 848 81 dac~;
#X obj 225 33 osc~ 493;
#X obj 308 33 osc~ 523;
#X obj 453 33 osc~ 587;
#X obj 601 33 osc~ 659;
#X obj 678 33 osc~ 698;
#X obj 848 33 osc~ 784;
#X text 65 131 Note: A;
#X obj 143 81 dac~;
#X obj 143 33 osc~ 446;
#X text 139 131 Note: A#;
#X text 224 131 Note: B;
#X text 300 131 Note: C;
#X obj 379 81 dac~;
#X obj 379 33 osc~ 554;
#X text 371 131 Note: C#;
#X text 444 131 Note: D;
#X obj 528 81 dac~;
#X text 519 131 Note: D#;
#X obj 528 33 osc~ 622;
#X text 601 131 Note: E;
#X text 672 131 Note: F;
#X obj 762 81 dac~;
#X obj 762 33 osc~ 740;
#X text 756 131 Note: F#;
#X text 848 131 Note: G;
#X obj 456 530 osc~;
#X obj 458 653 dac~;
#X floatatom 456 483 5 0 0 0 - - -;
#X msg 215 421 440;
#X msg 693 421 740;
#X msg 728 421 784;
#X msg 252 421 466.16;
#X msg 305 421 493.88;
#X msg 353 421 523.25;
#X msg 411 421 554.37;
#X msg 471 421 587.33;
#X msg 528 421 622.25;
#X msg 582 421 659.25;
#X msg 640 421 698.46;
#X obj 419 241 key;
#X floatatom 419 289 5 0 0 0 - - -;
#X obj 292 318 sel 97 115 100 102 103 104 106 107 108 59 39;
#X obj 457 583 *~;
#X obj 543 507 vsl 15 128 0 1 0 0 empty empty Volume 0 -9 0 10 -204800
-1 -1 0 1;
#X connect 33 0 50 0;
#X connect 35 0 33 0;
#X connect 36 0 35 0;
#X connect 37 0 35 0;
#X connect 38 0 35 0;
#X connect 39 0 35 0;
#X connect 40 0 35 0;
#X connect 41 0 35 0;
#X connect 42 0 35 0;
#X connect 43 0 35 0;
#X connect 44 0 35 0;
#X connect 45 0 35 0;
#X connect 46 0 35 0;
#X connect 47 0 48 0;
#X connect 48 0 49 0;
#X connect 49 0 36 0;
#X connect 49 1 39 0;
#X connect 49 2 40 0;
#X connect 49 3 41 0;
#X connect 49 4 42 0;
#X connect 49 5 43 0;
#X connect 49 6 44 0;
#X connect 49 7 45 0;
#X connect 49 8 46 0;
#X connect 49 9 37 0;
#X connect 49 10 38 0;
#X connect 50 0 34 0;
#X connect 50 0 34 1;
#X connect 51 0 50 1;
